# xmcd CD database file
#
# Track frame offsets:
#	150
#	17232
#	37385
#	65933
#	85756
#	108873
#	130398
#	142390
#	157870
#	172109
#	199086
#	213430
#
# Disc length: 3067 seconds
#
# Revision: 3
# Processed by: cddbd v1.5.2PL0 Copyright (c) Steve Scherf et al.
# Submitted via: CDex 1.70beta2
#
DISCID=b90bf90c
DTITLE=Ксения Федулова and ''Красная рыба'' - Aqua Vita
DYEAR=2008
DGENRE=Blues
TTITLE0=Тёмно-синий блюз
TTITLE1=Но если ты
TTITLE2=Блюзмен
TTITLE3=Право
TTITLE4=Ты разбил моё сердце
TTITLE5=Шторм в небесах
TTITLE6=Петя
TTITLE7=Сделай мне блюз, дедка
TTITLE8=Суши глаза
TTITLE9=Пой, негр, пой
TTITLE10=На тебе нет лица
TTITLE11=Халигарх-буги
EXTD=YEAR: 2008
EXTT0=
EXTT1=
EXTT2=
EXTT3=
EXTT4=
EXTT5=
EXTT6=
EXTT7=
EXTT8=
EXTT9=
EXTT10=
EXTT11=
PLAYORDER=
